<svg width="582" height="1699" viewBox="0 0 582 1699" fill="none" xmlns="http://www.w3.org/2000/svg">
    <path d="M414.142 203.825L426.703 66.6808L398.413 71.3838L371.649 24.9072L341.778 54.1024L304.322 3.64371L286.553 42.2037L245.911 4.91568L232.503 47.3032L185.003 17.8136L170.462 66.851L146.901 59.3902L142.182 99.8898L127.599 101.361L156.151 203.825"
          stroke="black" stroke-width="6" stroke-linecap="round" stroke-linejoin="round"/>
    <path d="M154.743 204.651C132.559 171.098 116.464 247.242 146.36 272.506" stroke="black" stroke-width="5"
          stroke-linecap="round" stroke-linejoin="round"/>
    <path d="M152.154 222.055C142.613 204.259 131.824 242.749 147.975 257.607" stroke="black" stroke-width="0.5"
          stroke-linecap="round" stroke-linejoin="round"/>
    <path d="M414.331 207.462C436.515 173.91 452.61 250.054 422.714 275.318" stroke="black" stroke-width="5"
          stroke-linecap="round" stroke-linejoin="round"/>
    <path d="M416.92 224.867C426.461 207.071 437.25 245.561 421.099 260.419" stroke="black" stroke-width="0.5"
          stroke-linecap="round" stroke-linejoin="round"/>
    <path d="M420.745 267.279C420.745 315.938 399.038 360.098 370.937 392.13C356.894 408.137 341.303 421.057 326.125 429.961C310.912 438.886 296.287 443.676 284.142 443.676C258.313 443.676 224.166 424.269 196.322 392.141C168.575 360.124 147.538 315.961 147.538 267.279C147.538 169.236 209.246 90.8825 284.142 90.8825C359.037 90.8825 420.745 169.236 420.745 267.279Z"
          stroke="black" stroke-width="5"/>
    <path d="M284.142 260.797C299.157 296.673 311.096 319.969 284.142 317.899" stroke="black" stroke-width="4"/>
    <path d="M235.961 353.161C258.393 366.255 302.172 378.937 334.888 358.34" stroke="black" stroke-width="6"
          stroke-linecap="round"/>
    <path d="M189.229 213.682C215.762 192.922 245.32 193.887 261.646 214.222" stroke="black" stroke-width="5"
          stroke-linecap="round" stroke-linejoin="round"/>
    <path d="M240.021 231.84C240.021 237.351 238.598 242.294 236.351 245.827C234.096 249.372 231.105 251.38 227.958 251.38C224.812 251.38 221.82 249.372 219.566 245.827C217.318 242.294 215.896 237.351 215.896 231.84C215.896 226.329 217.318 221.386 219.566 217.853C221.82 214.307 224.812 212.3 227.958 212.3C231.105 212.3 234.096 214.307 236.351 217.853C238.598 221.386 240.021 226.329 240.021 231.84Z"
          fill="black" stroke="black" stroke-width="2"/>
    <path d="M231.295 237.574C231.295 238.96 230.869 240.177 230.227 241.026C229.586 241.874 228.774 242.309 227.958 242.309C227.143 242.309 226.331 241.874 225.69 241.026C225.048 240.177 224.622 238.96 224.622 237.574C224.622 236.188 225.048 234.971 225.69 234.123C226.331 233.275 227.143 232.84 227.958 232.84C228.774 232.84 229.586 233.275 230.227 234.123C230.869 234.971 231.295 236.188 231.295 237.574Z"
          fill="white" stroke="white" stroke-width="2"/>
    <path d="M379.558 214.211C353.026 193.451 323.468 194.416 307.142 214.751" stroke="black" stroke-width="5"
          stroke-linecap="round" stroke-linejoin="round"/>
    <path d="M328.767 232.369C328.767 237.88 330.189 242.822 332.436 246.356C334.691 249.901 337.683 251.908 340.829 251.908C343.976 251.908 346.967 249.901 349.222 246.356C351.469 242.822 352.892 237.88 352.892 232.369C352.892 226.857 351.469 221.915 349.222 218.381C346.967 214.836 343.976 212.829 340.829 212.829C337.683 212.829 334.691 214.836 332.436 218.381C330.189 221.915 328.767 226.857 328.767 232.369Z"
          fill="black" stroke="black" stroke-width="2"/>
    <path d="M337.493 238.103C337.493 239.489 337.919 240.706 338.561 241.554C339.202 242.402 340.014 242.837 340.829 242.837C341.645 242.837 342.457 242.402 343.098 241.554C343.74 240.706 344.166 239.489 344.166 238.103C344.166 236.717 343.74 235.5 343.098 234.651C342.457 233.803 341.645 233.369 340.829 233.369C340.014 233.369 339.202 233.803 338.561 234.651C337.919 235.5 337.493 236.717 337.493 238.103Z"
          fill="white" stroke="white" stroke-width="2"/>
    <path d="M218.021 416.231L191.16 508.216H181.696" stroke="black" stroke-width="5" stroke-linecap="round"
          stroke-linejoin="round"/>
    <path d="M352.035 414.159L380.862 508.216H390.624" stroke="black" stroke-width="5" stroke-linecap="round"
          stroke-linejoin="round"/>
    <path d="M392.192 508.217C320.847 611.518 242.49 579.596 180.576 508.217L114.094 516.352C51.1622 538.53 10.6809 615.524 3.97607 723.946L114.094 724.905V684.189V643.474L123.79 1014.46H456.913L467.994 641.556V722.987L578.112 722.028C563.587 615.485 521.096 531.104 467.994 516.352L392.192 508.217Z"
          stroke="black" stroke-width="6" stroke-linecap="round" stroke-linejoin="round"/>
    <path d="M119.063 1579.52L116.063 1579.48L116.028 1582.35L118.897 1582.51L119.063 1579.52ZM220.622 1585.15L220.456 1588.15L223.363 1588.31L223.612 1585.41L220.622 1585.15ZM386.771 1586.44L383.802 1586.87L384.194 1589.57L386.923 1589.43L386.771 1586.44ZM485.847 1581.38L486 1584.38L488.997 1584.22L488.844 1581.23L485.847 1581.38ZM122.91 1016.17L116.063 1579.48L122.063 1579.55L128.91 1016.25L122.91 1016.17ZM118.897 1582.51L220.456 1588.15L220.789 1582.16L119.229 1576.52L118.897 1582.51ZM220.622 1585.15C223.612 1585.41 223.612 1585.41 223.612 1585.4C223.612 1585.4 223.613 1585.39 223.613 1585.39C223.614 1585.38 223.616 1585.36 223.618 1585.33C223.622 1585.28 223.629 1585.21 223.637 1585.11C223.654 1584.91 223.68 1584.61 223.714 1584.22C223.783 1583.43 223.885 1582.27 224.019 1580.75C224.288 1577.71 224.687 1573.24 225.208 1567.57C226.249 1556.21 227.776 1539.98 229.718 1520.51C233.602 1481.56 239.144 1429.65 245.78 1377.75C252.418 1325.83 260.142 1274 268.382 1235.19C272.506 1215.77 276.734 1199.74 280.977 1188.62C283.105 1183.05 285.175 1178.88 287.136 1176.16C289.201 1173.3 290.602 1172.78 291.25 1172.78L291.296 1166.78C287.562 1166.76 284.578 1169.45 282.271 1172.65C279.86 1175.99 277.57 1180.72 275.371 1186.48C270.958 1198.05 266.655 1214.44 262.513 1233.95C254.22 1273 246.471 1325.03 239.828 1376.99C233.183 1428.96 227.634 1480.94 223.748 1519.91C221.804 1539.4 220.276 1555.65 219.233 1567.02C218.712 1572.7 218.312 1577.17 218.043 1580.22C217.908 1581.74 217.806 1582.91 217.737 1583.7C217.703 1584.09 217.677 1584.39 217.66 1584.59C217.651 1584.69 217.644 1584.77 217.64 1584.82C217.638 1584.84 217.636 1584.86 217.635 1584.88C217.635 1584.88 217.634 1584.89 217.634 1584.89C217.634 1584.89 217.633 1584.89 220.622 1585.15ZM291.25 1172.78C291.963 1172.79 293.48 1173.41 295.747 1176.34C297.896 1179.12 300.227 1183.35 302.692 1188.97C307.608 1200.17 312.798 1216.29 318.085 1235.78C328.649 1274.74 339.473 1326.72 349.216 1378.76C358.956 1430.79 367.603 1482.82 373.815 1521.84C376.921 1541.36 379.418 1557.61 381.138 1568.99C381.999 1574.68 382.665 1579.15 383.115 1582.2C383.341 1583.72 383.513 1584.89 383.628 1585.68C383.685 1586.07 383.729 1586.37 383.758 1586.57C383.773 1586.67 383.783 1586.74 383.791 1586.79C383.794 1586.82 383.797 1586.84 383.799 1586.85C383.8 1586.86 383.801 1586.86 383.801 1586.86C383.801 1586.87 383.802 1586.87 386.771 1586.44C389.739 1586.01 389.739 1586 389.739 1586C389.738 1586 389.738 1585.99 389.737 1585.99C389.735 1585.97 389.732 1585.95 389.728 1585.93C389.721 1585.88 389.71 1585.8 389.695 1585.7C389.666 1585.5 389.622 1585.2 389.564 1584.81C389.449 1584.02 389.277 1582.85 389.051 1581.32C388.599 1578.27 387.932 1573.79 387.071 1568.1C385.349 1556.7 382.849 1540.43 379.741 1520.9C373.523 1481.85 364.867 1429.76 355.114 1377.66C345.364 1325.58 334.504 1273.41 323.876 1234.21C318.567 1214.64 313.285 1198.18 308.186 1186.56C305.644 1180.77 303.082 1176.02 300.495 1172.67C298.026 1169.48 294.964 1166.81 291.296 1166.78L291.25 1172.78ZM386.923 1589.43L486 1584.38L485.695 1578.39L386.618 1583.44L386.923 1589.43ZM488.844 1581.23L459.829 1016.06L453.837 1016.36L482.851 1581.54L488.844 1581.23Z"
          fill="black"/>
    <path d="M252.555 1027.15L127.601 1024.79V1057.35L252.555 1059.94M252.555 1027.15V1022.67L314.8 1022.6V1027.08M252.555 1027.15V1059.94M314.8 1027.08L457.567 1024.79V1057.35L314.8 1059.87M314.8 1027.08V1059.87M314.8 1059.87V1064.59L252.555 1064.66V1059.94M255.476 1024.61L311.971 1024.55V1062.65L255.476 1062.72V1024.61Z"
          stroke="black" stroke-width="3"/>
    <path d="M168.015 1066.99C164.833 1047.49 164.862 1036.46 168.015 1016.66H179.426C177.402 1036.61 177.413 1047.64 179.426 1066.99H168.015Z"
          fill="black" stroke="black"/>
    <path d="M406.524 1066.99C409.705 1047.49 409.677 1036.46 406.524 1016.66H395.113C397.136 1036.61 397.125 1047.64 395.113 1066.99H406.524Z"
          fill="black" stroke="black"/>
    <path d="M196.651 1087.24C188.185 1117.48 155.564 1103.1 148.414 1099.92" stroke="black"/>
    <path d="M377.887 1087.24C386.354 1117.48 418.975 1103.1 426.125 1099.92" stroke="black"/>
    <path d="M564.442 1022.61C555.563 976.674 577.771 879.268 558.155 723.958L482.705 723.744C497.819 853.415 502.927 907.276 497.819 1022.61L473.078 1082.81C467.103 1100.34 483.197 1100.61 485.052 1089.58C484.881 1089.67 492.667 1066.77 497.819 1067.07C502.971 1067.38 486.628 1136.33 486.628 1136.33C482.248 1151.85 499.456 1155.14 502.502 1141.66C502.502 1141.66 512.26 1087.28 513.708 1089.45C515.157 1091.62 514.642 1149.12 514.642 1149.12C514.707 1160.73 529.545 1162.43 530.516 1149.12C530.516 1149.12 531.89 1088.94 533.801 1089.59C535.713 1090.24 542.656 1140.59 542.656 1140.59C543.456 1152.67 561.077 1150.67 559.464 1138.46C559.464 1138.46 548.215 1076.79 550.858 1077.69C553.501 1078.59 564.442 1119.29 564.442 1119.29C567.053 1128.39 580.397 1125.45 577.771 1115.36L564.442 1022.61Z"
          stroke="black" stroke-width="5" stroke-linecap="round" stroke-linejoin="round"/>
    <path d="M17.6459 1022.61C26.5252 976.674 4.31659 879.268 23.9324 723.958L99.3825 723.744C84.2687 853.415 79.1605 907.276 84.2687 1022.61L109.009 1082.81C114.985 1100.34 98.8903 1100.61 97.036 1089.58C97.2067 1089.67 89.4209 1066.77 84.2687 1067.07C79.1166 1067.38 95.4598 1136.33 95.4598 1136.33C99.84 1151.85 82.6317 1155.14 79.5853 1141.66C79.5853 1141.66 69.8282 1087.28 68.3797 1089.45C66.9312 1091.62 67.4459 1149.12 67.4459 1149.12C67.3811 1160.73 52.5427 1162.43 51.5714 1149.12C51.5714 1149.12 50.1982 1088.94 48.2865 1089.59C46.3747 1090.24 39.432 1140.59 39.432 1140.59C38.6318 1152.67 21.0112 1150.67 22.6236 1138.46C22.6236 1138.46 33.8728 1076.79 31.23 1077.69C28.5872 1078.59 17.6459 1119.29 17.6459 1119.29C15.0346 1128.39 1.6904 1125.45 4.31659 1115.36L17.6459 1022.61Z"
          stroke="black" stroke-width="5" stroke-linecap="round" stroke-linejoin="round"/>
    <path d="M485.845 1580.6C485.845 1580.6 514.255 1593.33 561.704 1655.96C609.153 1718.59 396.568 1692.89 390.428 1668.41C384.288 1643.92 386.55 1584.92 386.55 1584.92"
          stroke="black" stroke-width="6"/>
    <path d="M476.978 1605.61C458.471 1604.82 448.898 1607.14 433.336 1616.44" stroke="black" stroke-width="3"
          stroke-linecap="round" stroke-linejoin="round"/>
    <path d="M494.186 1623.25C475.68 1622.46 466.107 1624.78 450.545 1634.08" stroke="black" stroke-width="3"
          stroke-linecap="round" stroke-linejoin="round"/>
    <path d="M509.121 1640.89C490.614 1640.11 481.041 1642.42 465.479 1651.72" stroke="black" stroke-width="3"
          stroke-linecap="round" stroke-linejoin="round"/>
    <path d="M119.13 1580.6C119.13 1580.6 90.7204 1593.33 43.2711 1655.96C-4.17823 1718.59 208.407 1692.89 214.547 1668.41C220.687 1643.92 218.425 1584.92 218.425 1584.92"
          stroke="black" stroke-width="6"/>
    <path d="M127.997 1605.61C146.504 1604.82 156.077 1607.14 171.639 1616.44" stroke="black" stroke-width="3"
          stroke-linecap="round" stroke-linejoin="round"/>
    <path d="M110.789 1623.25C129.295 1622.46 138.868 1624.78 154.43 1634.08" stroke="black" stroke-width="3"
          stroke-linecap="round" stroke-linejoin="round"/>
    <path d="M95.8544 1640.89C114.361 1640.11 123.934 1642.42 139.496 1651.72" stroke="black" stroke-width="3"
          stroke-linecap="round" stroke-linejoin="round"/>
</svg>
