<svg width="802" height="270" viewBox="0 0 802 270" fill="none" xmlns="http://www.w3.org/2000/svg">
    <path d="M68.2132 32.291L70.2729 10.5617L65.6338 11.3069L61.245 3.94308L56.3466 8.56879L50.2045 0.574066L47.2906 6.68355L40.6261 0.775599L38.4273 7.49151L30.6381 2.81915L28.2538 10.5887L24.3901 9.40659L23.6162 15.8234L21.2249 16.0565L25.9069 32.291"
          stroke="black" stroke-linecap="round" stroke-linejoin="round"/>
    <path d="M25.676 32.4218C22.0383 27.1057 19.3989 39.17 24.3014 43.1729" stroke="black" stroke-linecap="round"
          stroke-linejoin="round"/>
    <path d="M25.2515 35.1793C23.6869 32.3598 21.9177 38.4582 24.5662 40.8122" stroke="black" stroke-linecap="round"
          stroke-linejoin="round"/>
    <path d="M68.2442 32.8673C71.8819 27.5512 74.5212 39.6155 69.6188 43.6184" stroke="black" stroke-linecap="round"
          stroke-linejoin="round"/>
    <path d="M68.6686 35.6248C70.2332 32.8053 72.0025 38.9037 69.354 41.2577" stroke="black" stroke-linecap="round"
          stroke-linejoin="round"/>
    <path d="M69.2059 42.3447C69.2059 50.0178 65.6625 56.9892 61.0662 62.0513C58.7699 64.5804 56.2208 66.6211 53.7407 68.0269C51.2539 69.4364 48.8692 70.1893 46.8952 70.1893C42.6903 70.1893 37.1122 67.1324 32.5566 62.0535C28.0188 56.9944 24.5845 50.0226 24.5845 42.3447C24.5845 26.8597 34.6692 14.5002 46.8952 14.5002C59.1211 14.5002 69.2059 26.8597 69.2059 42.3447Z"
          stroke="black"/>
    <path d="M46.895 41.3177C49.3574 47.0018 51.315 50.6929 46.895 50.365" stroke="black"/>
    <path d="M38.9944 55.9519C42.6729 58.0266 49.852 60.0359 55.2169 56.7725" stroke="black" stroke-linecap="round"/>
    <path d="M31.3311 33.8527C35.682 30.5636 40.529 30.7164 43.2062 33.9383" stroke="black" stroke-linecap="round"
          stroke-linejoin="round"/>
    <path d="M39.3241 36.7297C39.3241 37.5447 39.1057 38.2596 38.7791 38.756C38.4497 39.2564 38.0514 39.484 37.6821 39.484C37.3128 39.484 36.9145 39.2564 36.5851 38.756C36.2584 38.2596 36.04 37.5447 36.04 36.7297C36.04 35.9147 36.2584 35.1998 36.5851 34.7034C36.9145 34.203 37.3128 33.9754 37.6821 33.9754C38.0514 33.9754 38.4497 34.203 38.7791 34.7034C39.1057 35.1998 39.3241 35.9147 39.3241 36.7297Z"
          fill="black" stroke="black"/>
    <mask id="path-11-inside-1" fill="white">
        <ellipse cx="37.682" cy="37.6383" rx="0.711093" ry="0.908552"/>
    </mask>
    <ellipse cx="37.682" cy="37.6383" rx="0.711093" ry="0.908552" fill="white"/>
    <path d="M37.3931 37.6383C37.3931 37.6835 37.3778 37.6894 37.3974 37.6644C37.4181 37.6379 37.5112 37.5468 37.682 37.5468V39.5468C38.8414 39.5468 39.3931 38.4503 39.3931 37.6383H37.3931ZM37.682 37.5468C37.8529 37.5468 37.946 37.6379 37.9667 37.6644C37.9863 37.6894 37.9709 37.6835 37.9709 37.6383H35.9709C35.9709 38.4503 36.5227 39.5468 37.682 39.5468V37.5468ZM37.9709 37.6383C37.9709 37.593 37.9863 37.5872 37.9667 37.6122C37.946 37.6386 37.8529 37.7297 37.682 37.7297V35.7297C36.5227 35.7297 35.9709 36.8262 35.9709 37.6383H37.9709ZM37.682 37.7297C37.5112 37.7297 37.4181 37.6386 37.3974 37.6122C37.3778 37.5872 37.3931 37.593 37.3931 37.6383H39.3931C39.3931 36.8262 38.8414 35.7297 37.682 35.7297V37.7297Z"
          fill="white" mask="url(#path-11-inside-1)"/>
    <path d="M62.542 33.9365C58.191 30.6473 53.344 30.8002 50.6669 34.0221" stroke="black" stroke-linecap="round"
          stroke-linejoin="round"/>
    <path d="M54.5489 36.8134C54.5489 37.6284 54.7673 38.3434 55.094 38.8397C55.4234 39.3401 55.8217 39.5678 56.191 39.5678C56.5603 39.5678 56.9586 39.3401 57.288 38.8397C57.6147 38.3434 57.833 37.6284 57.833 36.8134C57.833 35.9985 57.6147 35.2835 57.288 34.7872C56.9586 34.2868 56.5603 34.0591 56.191 34.0591C55.8217 34.0591 55.4234 34.2868 55.094 34.7872C54.7673 35.2835 54.5489 35.9985 54.5489 36.8134Z"
          fill="black" stroke="black"/>
    <mask id="path-15-inside-2" fill="white">
        <ellipse rx="0.711094" ry="0.908553" transform="matrix(-1 0 0 1 56.191 37.722)"/>
    </mask>
    <ellipse rx="0.711094" ry="0.908553" transform="matrix(-1 0 0 1 56.191 37.722)" fill="white"/>
    <path d="M56.4799 37.722C56.4799 37.7672 56.4952 37.7731 56.4757 37.7481C56.4549 37.7216 56.3619 37.6306 56.191 37.6306V39.6306C55.0317 39.6306 54.4799 38.534 54.4799 37.722H56.4799ZM56.191 37.6306C56.0201 37.6306 55.9271 37.7216 55.9063 37.7481C55.8868 37.7731 55.9021 37.7672 55.9021 37.722H57.9021C57.9021 38.534 57.3504 39.6306 56.191 39.6306V37.6306ZM55.9021 37.722C55.9021 37.6768 55.8868 37.6709 55.9063 37.6959C55.9271 37.7224 56.0201 37.8134 56.191 37.8134V35.8134C57.3504 35.8134 57.9021 36.91 57.9021 37.722H55.9021ZM56.191 37.8134C56.3619 37.8134 56.4549 37.7224 56.4757 37.6959C56.4952 37.6709 56.4799 37.6768 56.4799 37.722H54.4799C54.4799 36.91 55.0317 35.8134 56.191 35.8134V37.8134Z"
          fill="white" mask="url(#path-15-inside-2)"/>
    <path d="M36.0524 65.9449L31.6476 80.519H30.0957" stroke="black" stroke-linecap="round" stroke-linejoin="round"/>
    <path d="M58.0286 65.6165L62.7557 80.519H64.3564" stroke="black" stroke-linecap="round" stroke-linejoin="round"/>
    <path d="M64.6137 80.5192C52.9142 96.8863 40.065 91.8284 29.9121 80.5192L19.0101 81.8081C8.69039 85.3219 2.05211 97.521 0.952637 114.699L19.0101 114.851V108.4V101.949L20.6001 160.729H75.2268L77.044 101.645V114.548L95.1014 114.396C92.7196 97.5147 85.7518 84.1453 77.044 81.8081L64.6137 80.5192Z"
          stroke="black" stroke-linecap="round" stroke-linejoin="round"/>
    <path d="M19.825 250.257L19.325 250.251L19.319 250.731L19.7982 250.756L19.825 250.257ZM36.479 251.149L36.4522 251.649L36.9344 251.675L36.977 251.194L36.479 251.149ZM63.7245 251.353L63.2301 251.428L63.2973 251.875L63.7492 251.853L63.7245 251.353ZM79.9715 250.552L79.9961 251.052L80.4975 251.027L80.4708 250.526L79.9715 250.552ZM20.4477 161L19.325 250.251L20.3249 250.263L21.4477 161.012L20.4477 161ZM19.7982 250.756L36.4522 251.649L36.5058 250.65L19.8517 249.758L19.7982 250.756ZM36.479 251.149C36.977 251.194 36.9771 251.193 36.9771 251.193C36.9772 251.192 36.9772 251.192 36.9773 251.191C36.9775 251.189 36.9777 251.186 36.9781 251.182C36.9788 251.174 36.9799 251.162 36.9813 251.146C36.9841 251.115 36.9883 251.068 36.9939 251.005C37.0051 250.881 37.0218 250.696 37.0439 250.455C37.088 249.974 37.1535 249.267 37.2388 248.367C37.4096 246.568 37.6599 243.997 37.9783 240.912C38.6152 234.741 39.524 226.516 40.6121 218.294C41.7006 210.068 42.967 201.857 44.3178 195.711C44.994 192.634 45.6868 190.096 46.3815 188.338C46.7301 187.455 47.0682 186.798 47.3878 186.37C47.7226 185.921 47.9508 185.838 48.0608 185.838L48.0682 184.838C47.4597 184.834 46.9687 185.26 46.5866 185.771C46.1892 186.303 45.8126 187.056 45.4515 187.97C44.7268 189.805 44.0205 192.405 43.3412 195.496C41.9809 201.685 40.7101 209.93 39.6207 218.162C38.5309 226.398 37.621 234.633 36.9836 240.809C36.6649 243.897 36.4143 246.471 36.2433 248.273C36.1578 249.174 36.0923 249.881 36.0481 250.364C36.0259 250.606 36.0092 250.791 35.9979 250.916C35.9923 250.978 35.9881 251.025 35.9852 251.057C35.9838 251.073 35.9828 251.085 35.982 251.093C35.9817 251.097 35.9814 251.1 35.9812 251.102C35.9811 251.103 35.9811 251.104 35.981 251.104C35.981 251.105 35.981 251.105 36.479 251.149ZM48.0608 185.838C48.1812 185.839 48.4286 185.938 48.797 186.399C49.1475 186.837 49.5286 187.505 49.9323 188.394C50.7373 190.167 51.5879 192.718 52.4547 195.806C54.1865 201.977 55.9613 210.211 57.559 218.457C59.156 226.7 60.5739 234.943 61.5926 241.126C62.1019 244.217 62.5113 246.793 62.7934 248.596C62.9344 249.497 63.0436 250.205 63.1176 250.688C63.1545 250.929 63.1827 251.114 63.2016 251.239C63.211 251.301 63.2182 251.348 63.2229 251.38C63.2253 251.396 63.2271 251.408 63.2283 251.416C63.2289 251.42 63.2294 251.423 63.2297 251.425C63.2298 251.426 63.2299 251.426 63.23 251.427C63.2301 251.427 63.2301 251.428 63.7245 251.353C64.219 251.279 64.219 251.279 64.2189 251.278C64.2188 251.278 64.2187 251.277 64.2185 251.276C64.2182 251.274 64.2178 251.271 64.2172 251.267C64.2159 251.259 64.2141 251.247 64.2117 251.231C64.2069 251.199 64.1998 251.152 64.1903 251.089C64.1713 250.964 64.1431 250.778 64.1061 250.537C64.032 250.053 63.9226 249.344 63.7814 248.441C63.4989 246.636 63.0891 244.057 62.5792 240.963C61.5597 234.775 60.1402 226.522 58.5407 218.267C56.9418 210.014 55.1608 201.747 53.4175 195.536C52.5467 192.434 51.6799 189.824 50.8428 187.98C50.4254 187.061 50.0041 186.307 49.578 185.774C49.1698 185.264 48.6662 184.843 48.0682 184.838L48.0608 185.838ZM63.7492 251.853L79.9961 251.052L79.9469 250.053L63.6999 250.854L63.7492 251.853ZM80.4708 250.526L75.713 160.98L74.7144 161.033L79.4722 250.579L80.4708 250.526Z"
          fill="black"/>
    <path d="M41.7155 162.739L21.2251 162.365V167.524L41.7155 167.935M41.7155 162.739V162.029L51.9227 162.019V162.729M41.7155 162.739V167.935M51.9227 162.729L75.334 162.365V167.524L51.9227 167.924M51.9227 162.729V167.924M51.9227 167.924V168.672L41.7155 168.683V167.935M42.1944 162.336L51.4587 162.327V168.364L42.1944 168.375V162.336Z"
          stroke="black"/>
    <path d="M27.8522 169.052C27.3305 165.962 27.3351 164.214 27.8522 161.077H29.7234C29.3915 164.238 29.3934 165.985 29.7234 169.052H27.8522Z"
          fill="black" stroke="black"/>
    <path d="M66.9637 169.052C67.4854 165.962 67.4808 164.214 66.9637 161.077H65.0925C65.4244 164.238 65.4225 165.985 65.0925 169.052H66.9637Z"
          fill="black" stroke="black"/>
    <path d="M32.5481 172.26C31.1598 177.052 25.8104 174.773 24.6379 174.269" stroke="black"/>
    <path d="M62.268 172.26C63.6564 177.052 69.0057 174.773 70.1782 174.269" stroke="black"/>
    <path d="M92.8597 162.02C91.4036 154.742 95.0455 139.309 91.8288 114.701L79.4562 114.667C81.9346 135.213 82.7723 143.746 81.9346 162.02L77.8776 171.558C76.8978 174.336 79.5369 174.378 79.841 172.631C79.813 172.646 81.0898 169.016 81.9346 169.065C82.7795 169.113 80.0995 180.038 80.0995 180.038C79.3812 182.497 82.2031 183.018 82.7027 180.882C82.7027 180.882 84.3027 172.266 84.5402 172.61C84.7777 172.953 84.6933 182.064 84.6933 182.064C84.7039 183.903 87.1372 184.173 87.2965 182.064C87.2965 182.064 87.5216 172.53 87.8351 172.633C88.1486 172.736 89.2871 180.713 89.2871 180.713C89.4184 182.627 92.3078 182.31 92.0434 180.376C92.0434 180.376 90.1988 170.605 90.6321 170.747C91.0655 170.89 92.8597 177.338 92.8597 177.338C93.2879 178.78 95.4761 178.314 95.0455 176.716L92.8597 162.02Z"
          stroke="black" stroke-linecap="round" stroke-linejoin="round"/>
    <path d="M3.19426 162.02C4.65033 154.742 1.00848 139.309 4.22515 114.701L16.5977 114.667C14.1193 135.213 13.2816 143.746 14.1193 162.02L18.1764 171.558C19.1562 174.336 16.517 174.378 16.2129 172.631C16.2409 172.646 14.9642 169.016 14.1193 169.065C13.2744 169.113 15.9545 180.038 15.9545 180.038C16.6727 182.497 13.8509 183.018 13.3513 180.882C13.3513 180.882 11.7513 172.266 11.5138 172.61C11.2762 172.953 11.3606 182.064 11.3606 182.064C11.35 183.903 8.91677 184.173 8.75748 182.064C8.75748 182.064 8.5323 172.53 8.21881 172.633C7.90531 172.736 6.76682 180.713 6.76682 180.713C6.6356 182.627 3.74612 182.31 4.01053 180.376C4.01053 180.376 5.8552 170.605 5.42183 170.747C4.98846 170.89 3.19426 177.338 3.19426 177.338C2.76606 178.78 0.577824 178.314 1.00848 176.716L3.19426 162.02Z"
          stroke="black" stroke-linecap="round" stroke-linejoin="round"/>
    <path d="M79.9714 250.429C79.9714 250.429 84.63 252.446 92.4109 262.369C100.192 272.292 65.3314 268.22 64.3246 264.341C63.3177 260.461 63.6886 251.113 63.6886 251.113"
          stroke="black"/>
    <path d="M78.5171 254.391C75.4823 254.267 73.9125 254.633 71.3606 256.107" stroke="black" stroke-linecap="round"
          stroke-linejoin="round"/>
    <path d="M81.3391 257.186C78.3043 257.062 76.7346 257.428 74.1826 258.902" stroke="black" stroke-linecap="round"
          stroke-linejoin="round"/>
    <path d="M83.7881 259.981C80.7533 259.857 79.1835 260.223 76.6316 261.697" stroke="black" stroke-linecap="round"
          stroke-linejoin="round"/>
    <path d="M19.836 250.429C19.836 250.429 15.1773 252.446 7.39642 262.369C-0.384477 272.292 34.4759 268.22 35.4828 264.341C36.4897 260.461 36.1187 251.113 36.1187 251.113"
          stroke="black"/>
    <path d="M21.2903 254.391C24.3251 254.267 25.8948 254.633 28.4467 256.107" stroke="black" stroke-linecap="round"
          stroke-linejoin="round"/>
    <path d="M18.4683 257.186C21.5031 257.062 23.0728 257.428 25.6247 258.902" stroke="black" stroke-linecap="round"
          stroke-linejoin="round"/>
    <path d="M16.0193 259.981C19.0541 259.857 20.6238 260.223 23.1758 261.697" stroke="black" stroke-linecap="round"
          stroke-linejoin="round"/>
    <path d="M303.497 32.2908L305.556 10.5616L300.917 11.3067L296.528 3.94292L291.63 8.56864L285.488 0.573914L282.574 6.6834L275.91 0.775446L273.711 7.49136L265.922 2.819L263.537 10.5885L259.674 9.40643L258.9 15.8232L256.508 16.0563L261.19 32.2908"
          stroke="black" stroke-linecap="round" stroke-linejoin="round"/>
    <path d="M260.959 32.4216C257.322 27.1055 254.682 39.1699 259.585 43.1728" stroke="black" stroke-linecap="round"
          stroke-linejoin="round"/>
    <path d="M260.535 35.1792C258.97 32.3596 257.201 38.458 259.849 40.812" stroke="black" stroke-linecap="round"
          stroke-linejoin="round"/>
    <path d="M303.528 32.8671C307.165 27.5509 309.805 39.6153 304.902 43.6182" stroke="black" stroke-linecap="round"
          stroke-linejoin="round"/>
    <path d="M303.952 35.6246C305.517 32.805 307.286 38.9034 304.637 41.2575" stroke="black" stroke-linecap="round"
          stroke-linejoin="round"/>
    <path d="M304.49 42.3446C304.49 50.0177 300.946 56.989 296.35 62.0511C294.054 64.5802 291.504 66.621 289.024 68.0267C286.538 69.4363 284.153 70.1892 282.179 70.1892C277.974 70.1892 272.396 67.1322 267.84 62.0534C263.302 56.9943 259.868 50.0224 259.868 42.3446C259.868 26.8596 269.953 14.5 282.179 14.5C294.405 14.5 304.49 26.8596 304.49 42.3446Z"
          stroke="black"/>
    <path d="M282.179 41.3174C284.641 47.0016 286.599 50.6927 282.179 50.3648" stroke="black"/>
    <path d="M274.278 55.9518C277.956 58.0265 285.135 60.0358 290.5 56.7724" stroke="black" stroke-linecap="round"/>
    <path d="M266.615 33.8525C270.966 30.5634 275.813 30.7163 278.49 33.9382" stroke="black" stroke-linecap="round"
          stroke-linejoin="round"/>
    <path d="M274.608 36.7295C274.608 37.5445 274.389 38.2595 274.063 38.7558C273.733 39.2562 273.335 39.4838 272.966 39.4838C272.596 39.4838 272.198 39.2562 271.869 38.7558C271.542 38.2595 271.324 37.5445 271.324 36.7295C271.324 35.9145 271.542 35.1996 271.869 34.7033C272.198 34.2028 272.596 33.9752 272.966 33.9752C273.335 33.9752 273.733 34.2028 274.063 34.7033C274.389 35.1996 274.608 35.9145 274.608 36.7295Z"
          fill="black" stroke="black"/>
    <mask id="path-46-inside-3" fill="white">
        <ellipse cx="272.966" cy="37.6381" rx="0.711093" ry="0.908553"/>
    </mask>
    <ellipse cx="272.966" cy="37.6381" rx="0.711093" ry="0.908553" fill="white"/>
    <path d="M272.677 37.6381C272.677 37.6833 272.662 37.6892 272.681 37.6642C272.702 37.6377 272.795 37.5466 272.966 37.5466V39.5466C274.125 39.5466 274.677 38.4501 274.677 37.6381H272.677ZM272.966 37.5466C273.137 37.5466 273.23 37.6377 273.25 37.6642C273.27 37.6892 273.255 37.6833 273.255 37.6381H271.255C271.255 38.4501 271.806 39.5466 272.966 39.5466V37.5466ZM273.255 37.6381C273.255 37.5929 273.27 37.587 273.25 37.612C273.23 37.6384 273.137 37.7295 272.966 37.7295V35.7295C271.806 35.7295 271.255 36.8261 271.255 37.6381H273.255ZM272.966 37.7295C272.795 37.7295 272.702 37.6384 272.681 37.612C272.662 37.587 272.677 37.5929 272.677 37.6381H274.677C274.677 36.8261 274.125 35.7295 272.966 35.7295V37.7295Z"
          fill="white" mask="url(#path-46-inside-3)"/>
    <path d="M297.826 33.9362C293.475 30.6471 288.628 30.7999 285.951 34.0218" stroke="black" stroke-linecap="round"
          stroke-linejoin="round"/>
    <path d="M289.833 36.8132C289.833 37.6282 290.051 38.3431 290.378 38.8395C290.707 39.3399 291.105 39.5675 291.475 39.5675C291.844 39.5675 292.242 39.3399 292.572 38.8395C292.898 38.3431 293.117 37.6282 293.117 36.8132C293.117 35.9982 292.898 35.2833 292.572 34.7869C292.242 34.2865 291.844 34.0589 291.475 34.0589C291.105 34.0589 290.707 34.2865 290.378 34.7869C290.051 35.2833 289.833 35.9982 289.833 36.8132Z"
          fill="black" stroke="black"/>
    <mask id="path-50-inside-4" fill="white">
        <ellipse rx="0.711094" ry="0.908553" transform="matrix(-1 0 0 1 291.475 37.7218)"/>
    </mask>
    <ellipse rx="0.711094" ry="0.908553" transform="matrix(-1 0 0 1 291.475 37.7218)" fill="white"/>
    <path d="M291.764 37.7218C291.764 37.767 291.779 37.7729 291.759 37.7479C291.739 37.7214 291.646 37.6303 291.475 37.6303V39.6303C290.315 39.6303 289.764 38.5338 289.764 37.7218H291.764ZM291.475 37.6303C291.304 37.6303 291.211 37.7214 291.19 37.7479C291.17 37.7729 291.186 37.767 291.186 37.7218H293.186C293.186 38.5338 292.634 39.6303 291.475 39.6303V37.6303ZM291.186 37.7218C291.186 37.6765 291.17 37.6706 291.19 37.6956C291.211 37.7221 291.304 37.8132 291.475 37.8132V35.8132C292.634 35.8132 293.186 36.9097 293.186 37.7218H291.186ZM291.475 37.8132C291.646 37.8132 291.739 37.7221 291.759 37.6956C291.779 37.6706 291.764 37.6765 291.764 37.7218H289.764C289.764 36.9097 290.315 35.8132 291.475 35.8132V37.8132Z"
          fill="white" mask="url(#path-50-inside-4)"/>
    <path d="M271.337 65.9447L266.932 80.5189H265.38" stroke="black" stroke-linecap="round" stroke-linejoin="round"/>
    <path d="M293.313 65.6164L298.04 80.5189H299.641" stroke="black" stroke-linecap="round" stroke-linejoin="round"/>
    <path d="M299.897 80.519C288.198 96.8861 275.349 91.8282 265.196 80.519L254.294 81.3954C254.294 81.3954 239.674 81.0005 222.042 99.1654L239.872 108.171L254.294 101.949L255.884 160.729H310.51L312.327 101.645V114.547L330.385 114.395C328.003 97.5145 321.035 84.1451 312.327 81.8079L299.897 80.519Z"
          stroke="black" stroke-linecap="round" stroke-linejoin="round"/>
    <path d="M255.109 250.257L254.609 250.25L254.603 250.73L255.082 250.756L255.109 250.257ZM271.763 251.149L271.736 251.649L272.218 251.674L272.261 251.193L271.763 251.149ZM299.008 251.353L298.514 251.427L298.581 251.875L299.033 251.852L299.008 251.353ZM315.255 250.552L315.28 251.051L315.781 251.027L315.755 250.526L315.255 250.552ZM255.732 161L254.609 250.25L255.609 250.263L256.732 161.012L255.732 161ZM255.082 250.756L271.736 251.649L271.79 250.65L255.136 249.757L255.082 250.756ZM271.763 251.149C272.261 251.193 272.261 251.193 272.261 251.193C272.261 251.192 272.261 251.191 272.261 251.19C272.261 251.188 272.262 251.186 272.262 251.182C272.263 251.174 272.264 251.162 272.265 251.146C272.268 251.114 272.272 251.067 272.278 251.005C272.289 250.881 272.306 250.696 272.328 250.455C272.372 249.973 272.437 249.267 272.523 248.367C272.694 246.567 272.944 243.997 273.262 240.912C273.899 234.741 274.808 226.516 275.896 218.293C276.985 210.068 278.251 201.857 279.602 195.71C280.278 192.634 280.971 190.096 281.665 188.337C282.014 187.455 282.352 186.797 282.672 186.369C283.007 185.921 283.235 185.837 283.345 185.838L283.352 184.838C282.744 184.834 282.253 185.259 281.871 185.771C281.473 186.303 281.097 187.056 280.735 187.97C280.011 189.805 279.304 192.405 278.625 195.496C277.265 201.685 275.994 209.93 274.905 218.162C273.815 226.398 272.905 234.633 272.268 240.809C271.949 243.897 271.698 246.471 271.527 248.272C271.442 249.173 271.376 249.881 271.332 250.364C271.31 250.605 271.293 250.791 271.282 250.915C271.276 250.978 271.272 251.025 271.269 251.057C271.268 251.073 271.267 251.085 271.266 251.093C271.266 251.097 271.265 251.1 271.265 251.102C271.265 251.103 271.265 251.104 271.265 251.104C271.265 251.105 271.265 251.105 271.763 251.149ZM283.345 185.838C283.465 185.839 283.713 185.938 284.081 186.399C284.431 186.837 284.813 187.505 285.216 188.394C286.021 190.166 286.872 192.718 287.739 195.806C289.47 201.977 291.245 210.211 292.843 218.457C294.44 226.7 295.858 234.943 296.876 241.125C297.386 244.217 297.795 246.793 298.077 248.595C298.218 249.497 298.328 250.205 298.402 250.688C298.438 250.929 298.467 251.114 298.486 251.239C298.495 251.301 298.502 251.348 298.507 251.38C298.509 251.396 298.511 251.408 298.512 251.415C298.513 251.419 298.513 251.422 298.514 251.424C298.514 251.425 298.514 251.426 298.514 251.427C298.514 251.427 298.514 251.427 299.008 251.353C299.503 251.279 299.503 251.278 299.503 251.278C299.503 251.277 299.503 251.277 299.502 251.276C299.502 251.274 299.502 251.271 299.501 251.267C299.5 251.259 299.498 251.246 299.496 251.231C299.491 251.199 299.484 251.151 299.474 251.089C299.455 250.964 299.427 250.778 299.39 250.536C299.316 250.053 299.207 249.343 299.065 248.441C298.783 246.636 298.373 244.057 297.863 240.963C296.844 234.775 295.424 226.522 293.825 218.266C292.226 210.014 290.445 201.747 288.701 195.536C287.831 192.433 286.964 189.823 286.127 187.98C285.709 187.061 285.288 186.307 284.862 185.774C284.454 185.264 283.95 184.843 283.352 184.838L283.345 185.838ZM299.033 251.852L315.28 251.051L315.231 250.053L298.984 250.854L299.033 251.852ZM315.755 250.526L310.997 160.979L309.998 161.032L314.756 250.579L315.755 250.526Z"
          fill="black"/>
    <path d="M276.999 162.739L256.509 162.365V167.524L276.999 167.935M276.999 162.739V162.029L287.206 162.018V162.729M276.999 162.739V167.935M287.206 162.729L310.618 162.365V167.524L287.206 167.924M287.206 162.729V167.924M287.206 167.924V168.671L276.999 168.683V167.935M277.478 162.336L286.742 162.327V168.364L277.478 168.374V162.336Z"
          stroke="black"/>
    <path d="M263.136 169.052C262.614 165.962 262.619 164.214 263.136 161.077H265.007C264.675 164.238 264.677 165.985 265.007 169.052H263.136Z"
          fill="black" stroke="black"/>
    <path d="M302.248 169.052C302.769 165.962 302.765 164.214 302.248 161.077H300.376C300.708 164.238 300.706 165.985 300.376 169.052H302.248Z"
          fill="black" stroke="black"/>
    <path d="M267.832 172.26C266.443 177.052 261.094 174.773 259.921 174.269" stroke="black"/>
    <path d="M297.551 172.26C298.94 177.052 304.289 174.773 305.461 174.269" stroke="black"/>
    <path d="M328.144 162.02C326.688 154.742 330.329 139.309 327.113 114.701L314.74 114.667C317.219 135.212 318.056 143.746 317.219 162.02L313.162 171.558C312.182 174.335 314.821 174.378 315.125 172.631C315.097 172.646 316.374 169.016 317.219 169.065C318.063 169.113 315.383 180.038 315.383 180.038C314.665 182.497 317.487 183.018 317.987 180.882C317.987 180.882 319.587 172.266 319.824 172.61C320.062 172.953 319.977 182.064 319.977 182.064C319.988 183.903 322.421 184.173 322.58 182.064C322.58 182.064 322.806 172.53 323.119 172.633C323.433 172.736 324.571 180.713 324.571 180.713C324.702 182.627 327.592 182.31 327.327 180.376C327.327 180.376 325.483 170.605 325.916 170.747C326.349 170.889 328.144 177.338 328.144 177.338C328.572 178.78 330.76 178.314 330.329 176.716L328.144 162.02Z"
          stroke="black" stroke-linecap="round" stroke-linejoin="round"/>
    <path d="M315.255 250.429C315.255 250.429 319.913 252.446 327.694 262.369C335.475 272.292 300.615 268.22 299.608 264.34C298.601 260.461 298.972 251.113 298.972 251.113"
          stroke="black"/>
    <path d="M313.801 254.391C310.766 254.266 309.196 254.633 306.644 256.107" stroke="black" stroke-linecap="round"
          stroke-linejoin="round"/>
    <path d="M316.623 257.186C313.588 257.061 312.018 257.428 309.466 258.902" stroke="black" stroke-linecap="round"
          stroke-linejoin="round"/>
    <path d="M319.072 259.981C316.037 259.856 314.467 260.223 311.915 261.697" stroke="black" stroke-linecap="round"
          stroke-linejoin="round"/>
    <path d="M255.12 250.429C255.12 250.429 250.461 252.446 242.68 262.369C234.899 272.292 269.76 268.22 270.767 264.34C271.773 260.461 271.402 251.113 271.402 251.113"
          stroke="black"/>
    <path d="M256.574 254.391C259.609 254.266 261.179 254.633 263.73 256.107" stroke="black" stroke-linecap="round"
          stroke-linejoin="round"/>
    <path d="M253.752 257.186C256.787 257.061 258.357 257.428 260.908 258.902" stroke="black" stroke-linecap="round"
          stroke-linejoin="round"/>
    <path d="M251.303 259.981C254.338 259.856 255.908 260.223 258.459 261.697" stroke="black" stroke-linecap="round"
          stroke-linejoin="round"/>
    <path d="M225.502 152.883C214.766 144.686 202.927 114.347 225.502 101.151L237.195 106.842C218.418 116.805 222.118 130.929 233.695 146.051"
          stroke="black" stroke-linecap="round" stroke-linejoin="round"/>
    <path d="M225.351 152.736L233.232 165.482C233.939 166.985 235.943 166.015 235.335 164.635C235.335 164.635 232.526 158.534 232.769 158.16C233.013 157.785 237.949 166.498 237.949 166.498C239.005 168.161 241.456 166.649 240.31 165.083C240.31 165.083 235.995 158.193 236.171 157.922C236.347 157.651 242.737 164.92 242.737 164.92C244.236 166.462 245.95 164.772 244.759 163.336C244.759 163.336 238.755 156.311 238.715 155.899C238.676 155.488 245.535 161.207 245.535 161.207C247.315 162.562 249.167 160.44 247.007 158.967C247.007 158.967 237.804 152.112 238.429 151.56C239.053 151.008 242.411 153.051 242.38 153.057C243.755 154.229 245.777 152.59 243.205 151.028L233.837 146.088"
          stroke="black" stroke-linecap="round" stroke-linejoin="round"/>
    <path d="M538.781 32.2908L540.841 10.5616L536.201 11.3067L531.813 3.94292L526.914 8.56864L520.772 0.573914L517.858 6.6834L511.194 0.775446L508.995 7.49136L501.206 2.819L498.821 10.5885L494.958 9.40643L494.184 15.8232L491.792 16.0563L496.475 32.2908"
          stroke="black" stroke-linecap="round" stroke-linejoin="round"/>
    <path d="M496.243 32.4216C492.606 27.1055 489.966 39.1699 494.869 43.1728" stroke="black" stroke-linecap="round"
          stroke-linejoin="round"/>
    <path d="M495.819 35.1792C494.254 32.3596 492.485 38.458 495.134 40.812" stroke="black" stroke-linecap="round"
          stroke-linejoin="round"/>
    <path d="M538.812 32.8671C542.449 27.5509 545.089 39.6153 540.186 43.6182" stroke="black" stroke-linecap="round"
          stroke-linejoin="round"/>
    <path d="M539.236 35.6246C540.801 32.805 542.57 38.9034 539.922 41.2575" stroke="black" stroke-linecap="round"
          stroke-linejoin="round"/>
    <path d="M539.774 42.3446C539.774 50.0177 536.23 56.989 531.634 62.0511C529.338 64.5802 526.789 66.621 524.309 68.0267C521.822 69.4363 519.437 70.1892 517.463 70.1892C513.258 70.1892 507.68 67.1322 503.124 62.0534C498.587 56.9943 495.152 50.0224 495.152 42.3446C495.152 26.8596 505.237 14.5 517.463 14.5C529.689 14.5 539.774 26.8596 539.774 42.3446Z"
          stroke="black"/>
    <path d="M517.463 41.3174C519.925 47.0016 521.883 50.6927 517.463 50.3648" stroke="black"/>
    <path d="M509.562 55.9518C513.241 58.0265 520.42 60.0358 525.785 56.7724" stroke="black" stroke-linecap="round"/>
    <path d="M501.899 33.8525C506.25 30.5634 511.097 30.7163 513.774 33.9382" stroke="black" stroke-linecap="round"
          stroke-linejoin="round"/>
    <path d="M509.892 36.7295C509.892 37.5445 509.674 38.2595 509.347 38.7558C509.018 39.2562 508.619 39.4838 508.25 39.4838C507.881 39.4838 507.482 39.2562 507.153 38.7558C506.826 38.2595 506.608 37.5445 506.608 36.7295C506.608 35.9145 506.826 35.1996 507.153 34.7033C507.482 34.2028 507.881 33.9752 508.25 33.9752C508.619 33.9752 509.018 34.2028 509.347 34.7033C509.674 35.1996 509.892 35.9145 509.892 36.7295Z"
          fill="black" stroke="black"/>
    <mask id="path-82-inside-5" fill="white">
        <ellipse cx="508.25" cy="37.6381" rx="0.711093" ry="0.908553"/>
    </mask>
    <ellipse cx="508.25" cy="37.6381" rx="0.711093" ry="0.908553" fill="white"/>
    <path d="M507.961 37.6381C507.961 37.6833 507.946 37.6892 507.965 37.6642C507.986 37.6377 508.079 37.5466 508.25 37.5466V39.5466C509.409 39.5466 509.961 38.4501 509.961 37.6381H507.961ZM508.25 37.5466C508.421 37.5466 508.514 37.6377 508.535 37.6642C508.554 37.6892 508.539 37.6833 508.539 37.6381H506.539C506.539 38.4501 507.091 39.5466 508.25 39.5466V37.5466ZM508.539 37.6381C508.539 37.5929 508.554 37.587 508.535 37.612C508.514 37.6384 508.421 37.7295 508.25 37.7295V35.7295C507.091 35.7295 506.539 36.8261 506.539 37.6381H508.539ZM508.25 37.7295C508.079 37.7295 507.986 37.6384 507.965 37.612C507.946 37.587 507.961 37.5929 507.961 37.6381H509.961C509.961 36.8261 509.409 35.7295 508.25 35.7295V37.7295Z"
          fill="white" mask="url(#path-82-inside-5)"/>
    <path d="M533.11 33.9362C528.759 30.6471 523.912 30.7999 521.235 34.0218" stroke="black" stroke-linecap="round"
          stroke-linejoin="round"/>
    <path d="M525.117 36.8132C525.117 37.6282 525.335 38.3431 525.662 38.8395C525.991 39.3399 526.39 39.5675 526.759 39.5675C527.128 39.5675 527.526 39.3399 527.856 38.8395C528.183 38.3431 528.401 37.6282 528.401 36.8132C528.401 35.9982 528.183 35.2833 527.856 34.7869C527.526 34.2865 527.128 34.0589 526.759 34.0589C526.39 34.0589 525.991 34.2865 525.662 34.7869C525.335 35.2833 525.117 35.9982 525.117 36.8132Z"
          fill="black" stroke="black"/>
    <mask id="path-86-inside-6" fill="white">
        <ellipse rx="0.711092" ry="0.908553" transform="matrix(-1 0 0 1 526.759 37.7218)"/>
    </mask>
    <ellipse rx="0.711092" ry="0.908553" transform="matrix(-1 0 0 1 526.759 37.7218)" fill="white"/>
    <path d="M527.048 37.7218C527.048 37.767 527.063 37.7729 527.044 37.7479C527.023 37.7214 526.93 37.6303 526.759 37.6303V39.6303C525.6 39.6303 525.048 38.5338 525.048 37.7218H527.048ZM526.759 37.6303C526.588 37.6303 526.495 37.7214 526.474 37.7479C526.455 37.7729 526.47 37.767 526.47 37.7218H528.47C528.47 38.5338 527.918 39.6303 526.759 39.6303V37.6303ZM526.47 37.7218C526.47 37.6765 526.455 37.6706 526.474 37.6956C526.495 37.7221 526.588 37.8132 526.759 37.8132V35.8132C527.918 35.8132 528.47 36.9097 528.47 37.7218H526.47ZM526.759 37.8132C526.93 37.8132 527.023 37.7221 527.044 37.6956C527.063 37.6706 527.048 37.6765 527.048 37.7218H525.048C525.048 36.9097 525.6 35.8132 526.759 35.8132V37.8132Z"
          fill="white" mask="url(#path-86-inside-6)"/>
    <path d="M506.62 65.9447L502.215 80.5189H500.664" stroke="black" stroke-linecap="round" stroke-linejoin="round"/>
    <path d="M528.596 65.6164L533.324 80.5189H534.924" stroke="black" stroke-linecap="round" stroke-linejoin="round"/>
    <path d="M535.181 80.519C523.482 96.8861 510.632 91.8282 500.48 80.519C500.48 80.519 490.688 79.9532 489.578 79.5407C488.467 79.1282 477.067 74.055 477.067 74.055L466.464 90.1107C466.464 90.1107 484.682 100.8 486.707 102.922C488.732 105.044 491.168 160.729 491.168 160.729H545.794L547.611 101.645V114.547L565.669 114.395C563.287 97.5146 556.319 84.1451 547.611 81.8079L535.181 80.519Z"
          stroke="black" stroke-linecap="round" stroke-linejoin="round"/>
    <path d="M490.393 250.257L489.893 250.25L489.887 250.73L490.366 250.756L490.393 250.257ZM507.047 251.149L507.02 251.648L507.502 251.674L507.545 251.193L507.047 251.149ZM534.292 251.353L533.798 251.427L533.865 251.875L534.317 251.852L534.292 251.353ZM550.539 250.552L550.564 251.051L551.065 251.027L551.038 250.525L550.539 250.552ZM491.015 161L489.893 250.25L490.893 250.263L492.015 161.012L491.015 161ZM490.366 250.756L507.02 251.648L507.073 250.65L490.419 249.757L490.366 250.756ZM507.047 251.149C507.545 251.193 507.545 251.193 507.545 251.193C507.545 251.192 507.545 251.191 507.545 251.19C507.545 251.188 507.545 251.185 507.546 251.181C507.546 251.174 507.547 251.162 507.549 251.146C507.552 251.114 507.556 251.067 507.562 251.005C507.573 250.881 507.589 250.696 507.612 250.455C507.656 249.973 507.721 249.267 507.806 248.367C507.977 246.567 508.228 243.996 508.546 240.911C509.183 234.741 510.092 226.516 511.18 218.293C512.268 210.068 513.535 201.857 514.885 195.71C515.562 192.634 516.254 190.096 516.949 188.337C517.298 187.455 517.636 186.797 517.955 186.369C518.29 185.921 518.518 185.837 518.628 185.838L518.636 184.838C518.027 184.834 517.536 185.259 517.154 185.771C516.757 186.303 516.38 187.056 516.019 187.97C515.294 189.804 514.588 192.405 513.909 195.496C512.549 201.685 511.278 209.93 510.188 218.162C509.099 226.398 508.189 234.633 507.551 240.809C507.233 243.897 506.982 246.471 506.811 248.272C506.725 249.173 506.66 249.881 506.616 250.364C506.594 250.605 506.577 250.791 506.566 250.915C506.56 250.978 506.556 251.025 506.553 251.057C506.551 251.073 506.55 251.085 506.55 251.093C506.549 251.097 506.549 251.1 506.549 251.102C506.549 251.103 506.549 251.104 506.549 251.104C506.549 251.105 506.549 251.105 507.047 251.149ZM518.628 185.838C518.749 185.839 518.996 185.938 519.365 186.399C519.715 186.837 520.096 187.505 520.5 188.394C521.305 190.166 522.156 192.718 523.022 195.806C524.754 201.976 526.529 210.211 528.127 218.457C529.724 226.7 531.142 234.942 532.16 241.125C532.669 244.217 533.079 246.792 533.361 248.595C533.502 249.497 533.611 250.205 533.685 250.688C533.722 250.929 533.75 251.114 533.769 251.239C533.779 251.301 533.786 251.348 533.791 251.38C533.793 251.396 533.795 251.407 533.796 251.415C533.797 251.419 533.797 251.422 533.797 251.424C533.797 251.425 533.798 251.426 533.798 251.427C533.798 251.427 533.798 251.427 534.292 251.353C534.787 251.279 534.787 251.278 534.787 251.278C534.786 251.277 534.786 251.277 534.786 251.276C534.786 251.273 534.785 251.27 534.785 251.266C534.784 251.258 534.782 251.246 534.779 251.23C534.775 251.199 534.767 251.151 534.758 251.089C534.739 250.964 534.711 250.778 534.674 250.536C534.6 250.053 534.49 249.343 534.349 248.441C534.067 246.636 533.657 244.057 533.147 240.963C532.127 234.775 530.708 226.522 529.108 218.266C527.509 210.014 525.728 201.747 523.985 195.536C523.114 192.433 522.248 189.823 521.41 187.98C520.993 187.061 520.572 186.307 520.146 185.774C519.737 185.264 519.234 184.843 518.636 184.838L518.628 185.838ZM534.317 251.852L550.564 251.051L550.515 250.053L534.268 250.854L534.317 251.852ZM551.038 250.525L546.281 160.979L545.282 161.032L550.04 250.579L551.038 250.525Z"
          fill="black"/>
    <path d="M512.283 162.739L491.793 162.365V167.524L512.283 167.935M512.283 162.739V162.029L522.491 162.018V162.729M512.283 162.739V167.935M522.491 162.729L545.902 162.365V167.524L522.491 167.924M522.491 162.729V167.924M522.491 167.924V168.671L512.283 168.683V167.935M512.762 162.336L522.027 162.327V168.364L512.762 168.374V162.336Z"
          stroke="black"/>
    <path d="M498.42 169.052C497.898 165.962 497.903 164.214 498.42 161.076H500.291C499.959 164.238 499.961 165.985 500.291 169.052H498.42Z"
          fill="black" stroke="black"/>
    <path d="M537.531 169.052C538.053 165.962 538.048 164.214 537.531 161.076H535.66C535.992 164.238 535.99 165.985 535.66 169.052H537.531Z"
          fill="black" stroke="black"/>
    <path d="M503.116 172.26C501.727 177.052 496.378 174.773 495.206 174.269" stroke="black"/>
    <path d="M532.835 172.26C534.224 177.052 539.573 174.773 540.746 174.269" stroke="black"/>
    <path d="M563.427 162.02C561.971 154.742 565.613 139.309 562.396 114.701L550.024 114.667C552.502 135.212 553.34 143.746 552.502 162.02L548.445 171.558C547.465 174.335 550.105 174.378 550.409 172.631C550.381 172.646 551.657 169.016 552.502 169.065C553.347 169.113 550.667 180.038 550.667 180.038C549.949 182.497 552.771 183.018 553.27 180.882C553.27 180.882 554.87 172.266 555.108 172.61C555.345 172.953 555.261 182.064 555.261 182.064C555.272 183.903 557.705 184.173 557.864 182.064C557.864 182.064 558.089 172.53 558.403 172.633C558.716 172.736 559.855 180.713 559.855 180.713C559.986 182.627 562.875 182.31 562.611 180.376C562.611 180.376 560.766 170.605 561.2 170.747C561.633 170.889 563.427 177.338 563.427 177.338C563.856 178.78 566.044 178.314 565.613 176.716L563.427 162.02Z"
          stroke="black" stroke-linecap="round" stroke-linejoin="round"/>
    <path d="M550.539 250.429C550.539 250.429 555.197 252.446 562.978 262.369C570.759 272.292 535.899 268.22 534.892 264.34C533.885 260.461 534.256 251.113 534.256 251.113"
          stroke="black"/>
    <path d="M549.084 254.391C546.049 254.266 544.48 254.633 541.928 256.107" stroke="black" stroke-linecap="round"
          stroke-linejoin="round"/>
    <path d="M551.906 257.186C548.871 257.061 547.302 257.428 544.75 258.902" stroke="black" stroke-linecap="round"
          stroke-linejoin="round"/>
    <path d="M554.355 259.981C551.32 259.856 549.751 260.223 547.199 261.697" stroke="black" stroke-linecap="round"
          stroke-linejoin="round"/>
    <path d="M490.403 250.429C490.403 250.429 485.745 252.446 477.964 262.369C470.183 272.292 505.043 268.22 506.05 264.34C507.057 260.461 506.686 251.113 506.686 251.113"
          stroke="black"/>
    <path d="M491.858 254.391C494.892 254.266 496.462 254.633 499.014 256.107" stroke="black" stroke-linecap="round"
          stroke-linejoin="round"/>
    <path d="M489.036 257.186C492.07 257.061 493.64 257.428 496.192 258.902" stroke="black" stroke-linecap="round"
          stroke-linejoin="round"/>
    <path d="M486.587 259.981C489.621 259.856 491.191 260.223 493.743 261.697" stroke="black" stroke-linecap="round"
          stroke-linejoin="round"/>
    <path d="M435.303 37.5823C434.274 44.8234 438.703 81.0298 467.013 87.9125L475.549 75.3414C454.92 72.2013 447.254 53.1621 447.999 39.2452"
          stroke="black" stroke-linecap="round" stroke-linejoin="round"/>
    <path d="M435.343 37.5818L435.654 20.4001C435.462 18.5066 438.112 18.2536 438.332 19.9673C438.332 19.9673 439.172 27.6143 439.652 27.8341C440.131 28.0539 439.879 16.5794 439.879 16.5794C439.947 14.3204 443.389 14.3294 443.169 16.5471C443.169 16.5471 442.945 25.8682 443.291 26.0272C443.638 26.1861 445.761 15.2511 445.761 15.2511C446.359 12.8459 449.153 13.4708 448.806 15.5873C448.806 15.5873 446.93 26.0534 447.141 26.4792C447.352 26.9051 450.904 17.2035 450.904 17.2035C451.905 14.8115 455.105 15.7759 453.785 18.5105C453.785 18.5105 448.518 30.7272 449.497 30.8923C450.476 31.0573 452.678 27.0482 452.642 27.0614C453.338 25.0918 456.417 25.4817 454.729 28.5495L448.123 38.993"
          stroke="black" stroke-linecap="round" stroke-linejoin="round"/>
    <path d="M774.064 32.2908L776.124 10.5616L771.485 11.3067L767.096 3.94292L762.197 8.56864L756.055 0.573914L753.141 6.6834L746.477 0.775446L744.278 7.49136L736.489 2.819L734.105 10.5885L730.241 9.40643L729.467 15.8232L727.076 16.0563L731.758 32.2908"
          stroke="black" stroke-linecap="round" stroke-linejoin="round"/>
    <path d="M731.527 32.4216C727.889 27.1055 725.25 39.1699 730.152 43.1728" stroke="black" stroke-linecap="round"
          stroke-linejoin="round"/>
    <path d="M731.102 35.1792C729.538 32.3596 727.768 38.458 730.417 40.812" stroke="black" stroke-linecap="round"
          stroke-linejoin="round"/>
    <path d="M774.095 32.8671C777.733 27.5509 780.372 39.6153 775.47 43.6182" stroke="black" stroke-linecap="round"
          stroke-linejoin="round"/>
    <path d="M774.519 35.6246C776.084 32.805 777.853 38.9034 775.205 41.2575" stroke="black" stroke-linecap="round"
          stroke-linejoin="round"/>
    <path d="M775.057 42.3446C775.057 50.0177 771.514 56.989 766.917 62.0511C764.621 64.5802 762.072 66.621 759.592 68.0267C757.105 69.4363 754.72 70.1892 752.746 70.1892C748.541 70.1892 742.963 67.1322 738.408 62.0534C733.87 56.9943 730.436 50.0224 730.436 42.3446C730.436 26.8596 740.52 14.5 752.746 14.5C764.972 14.5 775.057 26.8596 775.057 42.3446Z"
          stroke="black"/>
    <path d="M752.746 41.3174C755.208 47.0016 757.166 50.6927 752.746 50.3648" stroke="black"/>
    <path d="M744.845 55.9518C748.524 58.0265 755.703 60.0358 761.068 56.7724" stroke="black" stroke-linecap="round"/>
    <path d="M737.182 33.8525C741.533 30.5634 746.38 30.7163 749.057 33.9382" stroke="black" stroke-linecap="round"
          stroke-linejoin="round"/>
    <path d="M745.175 36.7295C745.175 37.5445 744.957 38.2595 744.63 38.7558C744.301 39.2562 743.902 39.4838 743.533 39.4838C743.164 39.4838 742.766 39.2562 742.436 38.7558C742.109 38.2595 741.891 37.5445 741.891 36.7295C741.891 35.9145 742.109 35.1996 742.436 34.7033C742.766 34.2028 743.164 33.9752 743.533 33.9752C743.902 33.9752 744.301 34.2028 744.63 34.7033C744.957 35.1996 745.175 35.9145 745.175 36.7295Z"
          fill="black" stroke="black"/>
    <mask id="path-118-inside-7" fill="white">
        <ellipse cx="743.533" cy="37.6381" rx="0.711094" ry="0.908553"/>
    </mask>
    <ellipse cx="743.533" cy="37.6381" rx="0.711094" ry="0.908553" fill="white"/>
    <path d="M743.244 37.6381C743.244 37.6833 743.229 37.6892 743.248 37.6642C743.269 37.6377 743.362 37.5466 743.533 37.5466V39.5466C744.692 39.5466 745.244 38.4501 745.244 37.6381H743.244ZM743.533 37.5466C743.704 37.5466 743.797 37.6377 743.818 37.6642C743.837 37.6892 743.822 37.6833 743.822 37.6381H741.822C741.822 38.4501 742.374 39.5466 743.533 39.5466V37.5466ZM743.822 37.6381C743.822 37.5929 743.837 37.587 743.818 37.612C743.797 37.6384 743.704 37.7295 743.533 37.7295V35.7295C742.374 35.7295 741.822 36.8261 741.822 37.6381H743.822ZM743.533 37.7295C743.362 37.7295 743.269 37.6384 743.248 37.612C743.229 37.587 743.244 37.5929 743.244 37.6381H745.244C745.244 36.8261 744.692 35.7295 743.533 35.7295V37.7295Z"
          fill="white" mask="url(#path-118-inside-7)"/>
    <path d="M768.393 33.9362C764.042 30.6471 759.195 30.7999 756.518 34.0218" stroke="black" stroke-linecap="round"
          stroke-linejoin="round"/>
    <path d="M760.4 36.8132C760.4 37.6282 760.618 38.3431 760.945 38.8395C761.274 39.3399 761.673 39.5675 762.042 39.5675C762.411 39.5675 762.81 39.3399 763.139 38.8395C763.466 38.3431 763.684 37.6282 763.684 36.8132C763.684 35.9982 763.466 35.2833 763.139 34.7869C762.81 34.2865 762.411 34.0589 762.042 34.0589C761.673 34.0589 761.274 34.2865 760.945 34.7869C760.618 35.2833 760.4 35.9982 760.4 36.8132Z"
          fill="black" stroke="black"/>
    <mask id="path-122-inside-8" fill="white">
        <ellipse rx="0.711092" ry="0.908553" transform="matrix(-1 0 0 1 762.042 37.7218)"/>
    </mask>
    <ellipse rx="0.711092" ry="0.908553" transform="matrix(-1 0 0 1 762.042 37.7218)" fill="white"/>
    <path d="M762.331 37.7218C762.331 37.767 762.346 37.7729 762.327 37.7479C762.306 37.7214 762.213 37.6303 762.042 37.6303V39.6303C760.883 39.6303 760.331 38.5338 760.331 37.7218H762.331ZM762.042 37.6303C761.871 37.6303 761.778 37.7214 761.757 37.7479C761.738 37.7729 761.753 37.767 761.753 37.7218H763.753C763.753 38.5338 763.201 39.6303 762.042 39.6303V37.6303ZM761.753 37.7218C761.753 37.6765 761.738 37.6706 761.757 37.6956C761.778 37.7221 761.871 37.8132 762.042 37.8132V35.8132C763.201 35.8132 763.753 36.9097 763.753 37.7218H761.753ZM762.042 37.8132C762.213 37.8132 762.306 37.7221 762.327 37.6956C762.346 37.6706 762.331 37.6765 762.331 37.7218H760.331C760.331 36.9097 760.883 35.8132 762.042 35.8132V37.8132Z"
          fill="white" mask="url(#path-122-inside-8)"/>
    <path d="M741.903 65.9447L737.499 80.5189H735.947" stroke="black" stroke-linecap="round" stroke-linejoin="round"/>
    <path d="M763.88 65.6164L768.607 80.5189H770.208" stroke="black" stroke-linecap="round" stroke-linejoin="round"/>
    <path d="M770.465 80.5192C758.765 96.8862 745.916 91.8284 735.763 80.5192L727.393 75.9303L719.33 70.8472L705.023 87.135C705.023 87.135 719.966 100.8 721.991 102.922C724.016 105.044 726.451 160.729 726.451 160.729H781.078L782.895 101.645V114.547L800.953 114.396C798.571 97.5147 791.603 84.1453 782.895 81.8081L770.465 80.5192Z"
          stroke="black" stroke-linecap="round" stroke-linejoin="round"/>
    <path d="M725.676 250.257L725.176 250.25L725.17 250.73L725.65 250.756L725.676 250.257ZM742.33 251.149L742.304 251.649L742.786 251.674L742.828 251.193L742.33 251.149ZM769.576 251.353L769.081 251.427L769.149 251.875L769.6 251.852L769.576 251.353ZM785.823 250.552L785.847 251.052L786.349 251.027L786.322 250.526L785.823 250.552ZM726.299 161L725.176 250.25L726.176 250.263L727.299 161.012L726.299 161ZM725.65 250.756L742.304 251.649L742.357 250.65L725.703 249.758L725.65 250.756ZM742.33 251.149C742.828 251.193 742.828 251.193 742.828 251.193C742.828 251.192 742.829 251.192 742.829 251.191C742.829 251.189 742.829 251.186 742.829 251.182C742.83 251.174 742.831 251.162 742.833 251.146C742.835 251.115 742.84 251.067 742.845 251.005C742.856 250.881 742.873 250.696 742.895 250.455C742.939 249.974 743.005 249.267 743.09 248.367C743.261 246.567 743.511 243.997 743.83 240.912C744.466 234.741 745.375 226.516 746.463 218.293C747.552 210.068 748.818 201.857 750.169 195.711C750.845 192.634 751.538 190.096 752.233 188.338C752.581 187.455 752.92 186.797 753.239 186.369C753.574 185.921 753.802 185.837 753.912 185.838L753.919 184.838C753.311 184.834 752.82 185.259 752.438 185.771C752.041 186.303 751.664 187.056 751.303 187.97C750.578 189.805 749.872 192.405 749.192 195.496C747.832 201.685 746.561 209.93 745.472 218.162C744.382 226.398 743.472 234.633 742.835 240.809C742.516 243.897 742.266 246.471 742.095 248.272C742.009 249.173 741.944 249.881 741.899 250.364C741.877 250.606 741.861 250.791 741.849 250.916C741.844 250.978 741.839 251.025 741.837 251.057C741.835 251.073 741.834 251.085 741.833 251.093C741.833 251.097 741.833 251.1 741.833 251.102C741.832 251.103 741.832 251.104 741.832 251.104C741.832 251.105 741.832 251.105 742.33 251.149ZM753.912 185.838C754.033 185.839 754.28 185.938 754.648 186.399C754.999 186.837 755.38 187.505 755.784 188.394C756.589 190.166 757.439 192.718 758.306 195.806C760.038 201.977 761.813 210.211 763.41 218.457C765.007 226.7 766.425 234.943 767.444 241.126C767.953 244.217 768.363 246.793 768.645 248.596C768.786 249.497 768.895 250.205 768.969 250.688C769.006 250.929 769.034 251.114 769.053 251.239C769.062 251.301 769.069 251.348 769.074 251.38C769.077 251.396 769.078 251.408 769.08 251.416C769.08 251.419 769.081 251.422 769.081 251.424C769.081 251.425 769.081 251.426 769.081 251.427C769.081 251.427 769.081 251.427 769.576 251.353C770.07 251.279 770.07 251.279 770.07 251.278C770.07 251.277 770.07 251.277 770.07 251.276C770.07 251.274 770.069 251.271 770.068 251.267C770.067 251.259 770.065 251.247 770.063 251.231C770.058 251.199 770.051 251.151 770.042 251.089C770.023 250.964 769.994 250.778 769.957 250.536C769.883 250.053 769.774 249.344 769.633 248.441C769.35 246.636 768.94 244.057 768.431 240.963C767.411 234.775 765.992 226.522 764.392 218.267C762.793 210.014 761.012 201.747 759.269 195.536C758.398 192.433 757.531 189.824 756.694 187.98C756.277 187.061 755.855 186.307 755.429 185.774C755.021 185.264 754.517 184.843 753.919 184.838L753.912 185.838ZM769.6 251.852L785.847 251.052L785.798 250.053L769.551 250.854L769.6 251.852ZM786.322 250.526L781.564 160.979L780.566 161.033L785.324 250.579L786.322 250.526Z"
          fill="black"/>
    <path d="M747.567 162.739L727.076 162.365V167.524L747.567 167.935M747.567 162.739V162.029L757.774 162.018V162.729M747.567 162.739V167.935M757.774 162.729L781.185 162.365V167.524L757.774 167.924M757.774 162.729V167.924M757.774 167.924V168.671L747.567 168.683V167.935M748.046 162.336L757.31 162.327V168.364L748.046 168.375V162.336Z"
          stroke="black"/>
    <path d="M733.704 169.052C733.182 165.962 733.186 164.214 733.704 161.077H735.575C735.243 164.238 735.245 165.985 735.575 169.052H733.704Z"
          fill="black" stroke="black"/>
    <path d="M772.815 169.052C773.337 165.962 773.332 164.214 772.815 161.077H770.944C771.276 164.238 771.274 165.985 770.944 169.052H772.815Z"
          fill="black" stroke="black"/>
    <path d="M738.399 172.26C737.011 177.052 731.662 174.773 730.489 174.269" stroke="black"/>
    <path d="M768.119 172.26C769.507 177.052 774.857 174.773 776.029 174.269" stroke="black"/>
    <path d="M798.711 162.02C797.254 154.742 800.896 139.309 797.68 114.701L785.307 114.667C787.785 135.212 788.623 143.746 787.785 162.02L783.728 171.558C782.749 174.335 785.388 174.378 785.692 172.631C785.664 172.646 786.941 169.016 787.785 169.065C788.63 169.113 785.95 180.038 785.95 180.038C785.232 182.497 788.054 183.018 788.553 180.882C788.553 180.882 790.153 172.266 790.391 172.61C790.629 172.953 790.544 182.064 790.544 182.064C790.555 183.903 792.988 184.173 793.147 182.064C793.147 182.064 793.372 172.53 793.686 172.633C793.999 172.736 795.138 180.713 795.138 180.713C795.269 182.627 798.159 182.31 797.894 180.376C797.894 180.376 796.05 170.605 796.483 170.747C796.916 170.889 798.711 177.338 798.711 177.338C799.139 178.78 801.327 178.314 800.896 176.716L798.711 162.02Z"
          stroke="black" stroke-linecap="round" stroke-linejoin="round"/>
    <path d="M785.822 250.429C785.822 250.429 790.481 252.446 798.262 262.369C806.043 272.292 771.182 268.22 770.175 264.34C769.169 260.461 769.539 251.113 769.539 251.113"
          stroke="black"/>
    <path d="M784.368 254.391C781.333 254.266 779.763 254.633 777.211 256.107" stroke="black" stroke-linecap="round"
          stroke-linejoin="round"/>
    <path d="M787.19 257.186C784.155 257.061 782.585 257.428 780.033 258.902" stroke="black" stroke-linecap="round"
          stroke-linejoin="round"/>
    <path d="M789.639 259.981C786.604 259.856 785.034 260.223 782.482 261.697" stroke="black" stroke-linecap="round"
          stroke-linejoin="round"/>
    <path d="M725.687 250.429C725.687 250.429 721.028 252.446 713.247 262.369C705.467 272.292 740.327 268.22 741.334 264.34C742.341 260.461 741.97 251.113 741.97 251.113"
          stroke="black"/>
    <path d="M727.141 254.391C730.176 254.266 731.746 254.633 734.298 256.107" stroke="black" stroke-linecap="round"
          stroke-linejoin="round"/>
    <path d="M724.319 257.186C727.354 257.061 728.924 257.428 731.476 258.902" stroke="black" stroke-linecap="round"
          stroke-linejoin="round"/>
    <path d="M721.87 259.981C724.905 259.856 726.475 260.223 729.027 261.697" stroke="black" stroke-linecap="round"
          stroke-linejoin="round"/>
    <path d="M690.317 31.8793C688.409 38.9522 680.842 73.0466 708.112 83.114L716.804 73.3736C696.703 67.8996 700.344 48.4491 702.786 34.7148"
          stroke="black" stroke-linecap="round" stroke-linejoin="round"/>
    <path d="M690.329 31.736L692.739 14.7102C692.78 12.808 695.443 12.8595 695.452 14.5863C695.452 14.5863 695.351 22.2757 695.8 22.5487C696.249 22.8216 697.403 11.3988 697.403 11.3988C697.747 9.16346 701.163 9.56546 700.674 11.7425C700.674 11.7425 699.31 20.9726 699.635 21.17C699.96 21.3674 703.406 10.7516 703.406 10.7516C704.294 8.43153 706.992 9.37111 706.389 11.4332C706.389 11.4332 703.245 21.6116 703.402 22.0586C703.56 22.5055 708.274 13.2776 708.274 13.2776C709.561 11.0167 712.62 12.3397 710.974 14.9044C710.974 14.9044 704.25 26.4341 705.202 26.7097C706.154 26.9854 708.831 23.2558 708.794 23.2649C709.726 21.3886 712.736 22.1273 710.684 24.9809L702.846 34.5967"
          stroke="black" stroke-linecap="round" stroke-linejoin="round"/>
</svg>
